<svg xmlns="http://www.w3.org/2000/svg" xmlns:xlink="http://www.w3.org/1999/xlink" version="1.1" id="Layer_1" x="0px" y="0px" viewBox="5.0 -10.0 100.0 135.0" enable-background="new 0 0 100 100" xml:space="preserve" height="100px" width="100px">
<path id="merge3" d="M90,30c0-5.5-4.5-10-10-10c-3.7,0-6.9,2-8.7,5H28.7c-1.7-3-5-5-8.7-5c-5.5,0-10,4.5-10,10  c0,5.5,4.5,10,10,10c3.7,0,6.9-2,8.7-5h42.7c1.7,3,5,5,8.7,5C85.5,40,90,35.5,90,30z M20,36c-3.3,0-6-2.7-6-6s2.7-6,6-6s6,2.7,6,6  S23.3,36,20,36z M80,36c-3.3,0-6-2.7-6-6s2.7-6,6-6s6,2.7,6,6S83.3,36,80,36z M80,40L69.5,58.2H75V60c0,1.5-0.5,5-5,5H28.7  c-1.7-3-5-5-8.7-5c-5.5,0-10,4.5-10,10c0,5.5,4.5,10,10,10c3.7,0,6.9-2,8.7-5H70c11,0,15-9,15-15v-1.8h5.5L80,40z M20,76  c-3.3,0-6-2.7-6-6s2.7-6,6-6s6,2.7,6,6S23.3,76,20,76z"/>
<text x="0.0" y="117.5" font-size="5.0" font-weight="bold" font-family="Helvetica Neue, Helvetica, Arial-Unicode, Arial, Sans-serif" fill="#000000">Created by Dmitry Baranovskiy</text><text x="0.0" y="122.5" font-size="5.0" font-weight="bold" font-family="Helvetica Neue, Helvetica, Arial-Unicode, Arial, Sans-serif" fill="#000000">from the Noun Project</text></svg>